<svg width="100%" height="100%" id="svg" viewBox="0 0 1440 590" xmlns="http://www.w3.org/2000/svg" class="transition duration-300 ease-in-out delay-150"><defs><linearGradient id="gradient" x1="5%" y1="71%" x2="95%" y2="29%"><stop offset="5%" stop-color="#00d084"></stop><stop offset="95%" stop-color="#0693e3"></stop></linearGradient></defs><path d="M 0,600 C 0,600 0,120 0,120 C 82.2583732057416,100.1244019138756 164.5167464114832,80.24880382775119 267,91 C 369.4832535885168,101.75119617224881 492.19138755980873,143.12918660287082 582,146 C 671.8086124401913,148.87081339712918 728.7177033492823,113.23444976076556 826,110 C 923.2822966507177,106.76555023923444 1060.9377990430621,135.93301435406698 1170,143 C 1279.0622009569379,150.06698564593302 1359.531100478469,135.0334928229665 1440,120 C 1440,120 1440,600 1440,600 Z" stroke="none" stroke-width="0" fill="url(#gradient)" fill-opacity="0.265" class="transition-all duration-300 ease-in-out delay-150 path-0"></path><defs><linearGradient id="gradient" x1="5%" y1="71%" x2="95%" y2="29%"><stop offset="5%" stop-color="#00d084"></stop><stop offset="95%" stop-color="#0693e3"></stop></linearGradient></defs><path d="M 0,600 C 0,600 0,240 0,240 C 95.08133971291866,230.25837320574163 190.16267942583733,220.51674641148324 272,217 C 353.8373205741627,213.48325358851676 422.43062200956933,216.19138755980865 528,226 C 633.5693779904307,235.80861244019135 776.1148325358853,252.71770334928226 889,264 C 1001.8851674641147,275.28229665071774 1085.11004784689,280.9377990430622 1172,276 C 1258.88995215311,271.0622009569378 1349.4449760765551,255.5311004784689 1440,240 C 1440,240 1440,600 1440,600 Z" stroke="none" stroke-width="0" fill="url(#gradient)" fill-opacity="0.4" class="transition-all duration-300 ease-in-out delay-150 path-1"></path><defs><linearGradient id="gradient" x1="5%" y1="71%" x2="95%" y2="29%"><stop offset="5%" stop-color="#00d084"></stop><stop offset="95%" stop-color="#0693e3"></stop></linearGradient></defs><path d="M 0,600 C 0,600 0,360 0,360 C 116.35406698564594,357.70334928229664 232.7081339712919,355.4066985645933 329,349 C 425.2918660287081,342.5933014354067 501.52153110047834,332.0765550239234 576,330 C 650.4784688995217,327.9234449760766 723.2057416267943,334.287081339713 823,352 C 922.7942583732057,369.712918660287 1049.6555023923445,398.77511961722485 1157,402 C 1264.3444976076555,405.22488038277515 1352.1722488038276,382.6124401913876 1440,360 C 1440,360 1440,600 1440,600 Z" stroke="none" stroke-width="0" fill="url(#gradient)" fill-opacity="0.53" class="transition-all duration-300 ease-in-out delay-150 path-2"></path><defs><linearGradient id="gradient" x1="5%" y1="71%" x2="95%" y2="29%"><stop offset="5%" stop-color="#00d084"></stop><stop offset="95%" stop-color="#0693e3"></stop></linearGradient></defs><path d="M 0,600 C 0,600 0,480 0,480 C 86.02870813397129,461.17703349282294 172.05741626794259,442.35406698564594 278,455 C 383.9425837320574,467.64593301435406 509.799043062201,511.7607655502393 618,504 C 726.200956937799,496.2392344497607 816.7464114832536,436.60287081339715 892,435 C 967.2535885167464,433.39712918660285 1027.2153110047846,489.82775119617224 1116,507 C 1204.7846889952154,524.1722488038278 1322.3923444976076,502.0861244019139 1440,480 C 1440,480 1440,600 1440,600 Z" stroke="none" stroke-width="0" fill="url(#gradient)" fill-opacity="1" class="transition-all duration-300 ease-in-out delay-150 path-3"></path></svg>